<svg id="Capa_1" enable-background="new 0 0 512 512" height="512" viewBox="0 0 512 512" width="512" xmlns="http://www.w3.org/2000/svg"><g><path d="m497 67.582h-381.333c-8.284 0-15 6.716-15 15v136.837c0 8.284 6.716 15 15 15h381.333c8.284 0 15-6.716 15-15v-136.837c0-8.285-6.716-15-15-15z" fill="#ffa64d"/><path d="m426.875 0h-341.75c-8.284 0-15 6.716-15 15v212.158c0 8.284 6.716 15 15 15h341.75c8.284 0 15-6.716 15-15v-212.158c0-8.284-6.716-15-15-15z" fill="#e7f2ff"/><path d="m441.88 15v212.16c0 8.28-6.72 15-15 15h-170.88v-242.16h170.88c8.28 0 15 6.72 15 15z" fill="#9dcfff"/><path d="m380.125 83h-109.125c-8.284 0-15 6.716-15 15s6.716 15 15 15h109.125c8.284 0 15-6.716 15-15s-6.716-15-15-15z" fill="#0081ff"/><path d="m462 157.577h-265v-39.996c0-27.57-22.43-50-50-50h-97c-27.57 0-50 22.43-50 50v359.419c0 19.299 15.701 35 35 35h442c19.299 0 35-15.701 35-35v-269.423c0-27.57-22.43-50-50-50z" fill="#ffea80"/><path d="m512 207.58v269.42c0 19.3-15.7 35-35 35h-221v-354.42h206c27.57 0 50 22.43 50 50z" fill="#f3d332"/><path d="m173.836 359.926c2.68 4.641 7.631 7.5 12.99 7.5h24.674v50.776c0 18.584 15.119 33.703 33.703 33.703h21.594c18.584 0 33.703-15.119 33.703-33.703v-50.776h24.674c5.359 0 10.311-2.859 12.99-7.5s2.68-10.359 0-15l-69.174-119.812c-2.68-4.641-7.631-7.5-12.99-7.5s-10.311 2.859-12.99 7.5l-69.174 119.812c-2.68 4.641-2.68 10.359 0 15z" fill="#00ba9f"/><path d="m173.84 344.93 69.17-119.82c2.68-4.64 7.63-7.5 12.99-7.5v234.3h-10.8c-15.41 0-28.44-10.4-32.44-24.55-.82-2.91-1.26-5.98-1.26-9.16v-50.77h-24.67c-5.36 0-10.31-2.86-12.99-7.5-2.68-4.65-2.68-10.36 0-15z" fill="#00ddc0"/></g></svg>