<?xml version="1.0" standalone="no"?>
<!DOCTYPE svg PUBLIC "-//W3C//DTD SVG 20010904//EN"
 "http://www.w3.org/TR/2001/REC-SVG-20010904/DTD/svg10.dtd">
<svg version="1.0" xmlns="http://www.w3.org/2000/svg"
 width="250.000000pt" height="150.000000pt" viewBox="0 0 250.000000 150.000000"
 preserveAspectRatio="xMidYMid meet">

<g transform="translate(0.000000,150.000000) scale(0.100000,-0.100000)"
fill="#000000" stroke="none">
<path d="M1130 1404 c-208 -55 -362 -222 -390 -424 -6 -41 -8 -92 -4 -113 5
-35 4 -38 -28 -51 -18 -8 -45 -12 -59 -9 -15 3 -30 0 -33 -6 -4 -5 -13 -8 -21
-5 -17 7 -105 -27 -105 -39 0 -5 6 -5 13 -1 10 6 10 4 0 -7 -7 -7 -12 -22 -12
-34 1 -16 2 -16 6 -3 2 9 10 15 17 12 7 -3 23 0 37 6 23 10 23 10 -6 6 l-30
-5 29 13 c19 9 24 15 15 18 -8 3 -11 9 -7 13 4 4 14 0 23 -9 9 -9 12 -16 6
-16 -6 0 -8 -6 -5 -13 3 -8 -5 -19 -18 -25 -23 -11 -22 -11 3 -6 21 4 27 1 32
-17 4 -13 5 -23 4 -24 -1 0 -23 -8 -49 -17 -36 -13 -48 -14 -48 -4 0 6 12 17
28 23 l27 11 -32 -5 c-31 -5 -33 -4 -39 37 -8 47 -24 36 -24 -17 0 -37 28
-113 41 -113 5 0 0 18 -11 41 -12 23 -19 43 -16 46 3 3 10 -7 16 -23 15 -39
49 -74 72 -74 11 0 16 -5 13 -10 -8 -13 -7 -13 57 9 68 23 108 48 108 67 0 8
7 14 16 14 8 0 12 -5 8 -11 -4 -8 1 -9 16 -4 18 6 32 -4 85 -62 34 -38 80 -77
101 -88 22 -11 41 -23 44 -26 3 -3 31 -16 63 -28 215 -79 473 8 599 203 41 63
74 156 79 222 3 37 16 52 47 53 7 1 10 -3 7 -9 -9 -14 7 -12 47 5 26 10 38 11
46 3 8 -8 27 -7 70 6 l58 18 1 47 c1 42 0 43 -6 11 -6 -36 -32 -49 -69 -35
-14 5 -14 8 -2 15 11 7 12 13 2 35 -7 15 -17 23 -23 19 -7 -4 -9 0 -5 12 3 11
2 25 -3 32 -6 10 -10 10 -21 -3 -11 -13 -15 -13 -21 -3 -6 9 -9 9 -9 1 0 -19
20 -26 35 -13 10 8 15 9 15 2 0 -17 -19 -24 -45 -18 -22 6 -23 9 -13 31 8 18
14 22 24 14 8 -7 14 -6 19 2 4 6 2 15 -5 19 -7 4 -10 12 -7 17 3 5 0 34 -8 64
-24 87 -16 81 15 -13 27 -81 88 -214 94 -207 11 13 -16 136 -41 185 -16 33
-42 85 -57 117 -24 53 -28 57 -42 43 -18 -18 -34 -21 -34 -6 0 6 7 10 15 10 8
0 15 5 15 10 0 6 6 10 13 10 16 0 85 -118 121 -205 33 -79 33 -55 1 32 -25 67
-102 193 -118 193 -5 0 -5 5 -2 10 10 17 -6 11 -51 -17 -24 -16 -44 -35 -44
-43 0 -13 1 -13 10 0 8 13 10 13 10 -1 0 -10 -17 -22 -42 -32 l-43 -17 25 20
25 20 -28 -10 c-15 -5 -41 -17 -58 -26 -31 -16 -31 -16 -73 25 -23 23 -47 41
-54 41 -7 0 -12 4 -12 9 0 5 -24 21 -52 35 -114 55 -238 69 -348 40z m698 -78
c-10 -7 -18 -22 -19 -32 0 -18 -1 -18 -8 1 -6 15 -3 23 13 32 28 16 35 16 14
-1z m39 -58 c-3 -8 -6 -5 -6 6 -1 11 2 17 5 13 3 -3 4 -12 1 -19z m-42 -39
c12 -63 18 -84 26 -89 4 -3 4 -12 -1 -20 -7 -11 -12 -2 -21 33 -9 32 -16 43
-22 34 -6 -8 -7 -6 -3 6 3 10 6 30 6 44 0 31 9 26 15 -8z m-131 10 c-4 -8 1
-9 17 -5 18 5 20 5 8 -3 -8 -6 -26 -7 -38 -4 -17 4 -19 8 -9 14 19 12 30 11
22 -2z m-449 -19 c-3 -5 -11 -10 -16 -10 -6 0 -7 5 -4 10 3 6 11 10 16 10 6 0
7 -4 4 -10z m405 -20 c-8 -5 -19 -10 -25 -10 -5 0 -3 5 5 10 8 5 20 10 25 10
6 0 3 -5 -5 -10z m207 -12 c-3 -8 -6 -5 -6 6 -1 11 2 17 5 13 3 -3 4 -12 1
-19z m-292 -26 c-3 -3 -11 0 -18 7 -9 10 -8 11 6 5 10 -3 15 -9 12 -12z m-70
-30 c-3 -3 -11 0 -18 7 -9 10 -8 11 6 5 10 -3 15 -9 12 -12z m-30 -2 c4 -6 -1
-7 -12 -3 -10 3 -15 3 -11 -2 11 -12 -11 -35 -33 -35 -10 0 -21 4 -24 10 -4 6
1 7 11 3 11 -4 15 -3 11 4 -5 7 1 10 15 7 13 -2 17 -1 9 2 -11 5 -11 8 0 15
18 11 26 11 34 -1z m396 -37 c-12 -20 -14 -14 -5 12 4 9 9 14 11 11 3 -2 0
-13 -6 -23z m-521 -27 c-14 -7 -36 -16 -50 -20 -14 -3 -7 3 15 13 45 22 73 27
35 7z m-100 -41 c-14 -8 -29 -14 -35 -14 -5 0 1 6 15 14 14 8 30 14 35 14 6 0
-1 -6 -15 -14z m107 -17 c-3 -8 -6 -5 -6 6 -1 11 2 17 5 13 3 -3 4 -12 1 -19z
m-167 -8 c-8 -5 -19 -10 -25 -10 -5 0 -3 5 5 10 8 5 20 10 25 10 6 0 3 -5 -5
-10z m-300 -30 c0 -5 -4 -10 -10 -10 -5 0 -10 5 -10 10 0 6 5 10 10 10 6 0 10
-4 10 -10z m1024 -25 c3 -8 18 -15 33 -16 25 0 26 -1 8 -9 -32 -14 -43 -11
-50 10 -5 15 -12 19 -33 15 -23 -4 -24 -4 -7 4 29 14 42 13 49 -4z m31 -3 c-3
-3 -11 0 -18 7 -9 10 -8 11 6 5 10 -3 15 -9 12 -12z m-857 -145 l19 -33 -143
-44 c-79 -24 -139 -47 -133 -51 6 -3 -1 -9 -16 -13 -15 -4 -30 -5 -33 -1 -3 3
3 5 14 6 10 0 14 3 7 5 -6 3 -28 -2 -48 -11 -35 -14 -40 -14 -71 6 -36 22 -37
24 -24 54 7 16 9 17 9 3 1 -9 5 -19 11 -23 5 -3 5 6 -1 24 -6 17 -9 36 -6 43
3 8 7 6 12 -7 19 -56 21 -58 21 -22 0 20 -4 33 -8 31 -4 -3 -8 0 -8 6 0 6 8
13 18 17 9 3 50 19 90 34 41 16 76 29 78 29 2 0 1 -12 -2 -27 -5 -19 -3 -25 4
-18 6 6 12 19 15 30 2 11 2 0 0 -25 -5 -50 5 -49 17 2 l8 33 2 -35 2 -35 8 35
c5 22 5 37 -2 41 -15 10 0 29 22 29 10 0 21 -8 23 -17 3 -12 5 -9 6 8 1 36 41
49 41 14 0 -13 -5 -27 -10 -30 -6 -4 -10 -3 -9 2 3 17 -1 36 -7 31 -3 -3 -2
-22 2 -42 l6 -37 13 25 c7 13 17 40 21 58 l7 33 13 -47 c6 -26 21 -63 32 -81z
m-21 101 c-3 -8 -6 -5 -6 6 -1 11 2 17 5 13 3 -3 4 -12 1 -19z m48 -8 c3 -5 1
-10 -4 -10 -6 0 -11 5 -11 10 0 6 2 10 4 10 3 0 8 -4 11 -10z m530 -10 c-11
-5 -27 -9 -35 -9 -9 0 -8 4 5 9 11 5 27 9 35 9 9 0 8 -4 -5 -9z m-568 -22 c-3
-8 -6 -5 -6 6 -1 11 2 17 5 13 3 -3 4 -12 1 -19z m503 2 c-8 -5 -22 -9 -30 -9
-10 0 -8 3 5 9 27 12 43 12 25 0z m-475 -38 c-3 -3 -11 0 -18 7 -9 10 -8 11 6
5 10 -3 15 -9 12 -12z m395 8 c8 -5 11 -10 5 -10 -5 0 -17 5 -25 10 -8 5 -10
10 -5 10 6 0 17 -5 25 -10z m-21 -14 c-2 -2 -59 -18 -126 -36 -97 -26 -125
-30 -140 -20 -17 11 -17 11 0 6 24 -8 68 4 61 15 -3 6 4 7 18 4 12 -3 55 4 93
14 69 19 102 25 94 17z m-846 -78 l-2 -43 14 40 c13 33 14 35 11 10 -3 -16 -8
-38 -11 -47 -5 -13 3 -27 25 -48 29 -27 30 -30 11 -30 -11 0 -29 10 -41 22
-11 12 -20 18 -20 13 0 -5 7 -16 15 -25 14 -15 12 -18 -24 -30 -38 -12 -82 -7
-67 8 4 4 22 13 39 20 23 9 25 11 7 7 -68 -14 -71 -14 -25 3 l50 19 -3 51 c-2
28 -1 56 3 62 13 21 20 9 18 -32z m522 -6 c-1 -2 -15 0 -31 4 -25 6 -26 8 -9
14 16 6 49 -9 40 -18z m-278 -58 c-3 -3 -12 -4 -19 -1 -8 3 -5 6 6 6 11 1 17
-2 13 -5z m663 -44 c0 -5 -5 -10 -11 -10 -5 0 -7 5 -4 10 3 6 8 10 11 10 2 0
4 -4 4 -10z"/>
<path d="M938 842 c-4 -12 -2 -20 3 -16 5 3 10 -5 10 -18 1 -14 3 -17 6 -7 2
8 0 26 -5 39 -9 24 -9 24 -14 2z"/>
<path d="M1030 845 c0 -5 5 -17 10 -25 5 -8 10 -10 10 -5 0 6 -5 17 -10 25 -5
8 -10 11 -10 5z"/>
<path d="M815 800 c-4 -17 -5 -34 -2 -36 2 -3 7 10 11 27 3 18 4 34 2 36 -2 3
-7 -10 -11 -27z"/>
<path d="M838 813 c-2 -10 2 -29 9 -43 13 -24 13 -23 7 15 -8 48 -10 51 -16
28z"/>
<path d="M792 808 c-7 -7 -12 -19 -13 -27 0 -11 -3 -10 -9 4 -6 13 -9 15 -9 5
-1 -21 15 -44 22 -33 9 14 27 63 24 63 -2 0 -8 -5 -15 -12z"/>
<path d="M737 776 c-9 -24 -9 -28 3 -21 6 3 10 -2 11 -12 0 -10 3 -13 5 -7 3
6 1 21 -4 34 -8 20 -9 21 -15 6z"/>
<path d="M708 759 c-3 -8 1 -20 8 -27 15 -14 17 -7 5 22 -6 15 -9 16 -13 5z"/>
<path d="M570 610 c-18 -12 -2 -12 25 0 13 6 15 9 5 9 -8 0 -22 -4 -30 -9z"/>
<path d="M2011 1044 c0 -11 3 -14 6 -6 3 7 2 16 -1 19 -3 4 -6 -2 -5 -13z"/>
<path d="M314 331 c-62 -38 -82 -131 -41 -192 51 -76 143 -87 203 -24 58 62
53 147 -12 205 -42 36 -101 41 -150 11z m134 -57 c25 -29 28 -72 7 -113 -16
-32 -33 -41 -76 -41 -46 0 -79 39 -79 94 0 37 5 48 32 71 38 32 81 29 116 -11z"/>
<path d="M590 211 c0 -127 7 -158 32 -133 8 8 17 8 30 1 51 -27 123 26 123 91
0 66 -72 118 -124 90 -20 -10 -21 -8 -21 35 0 38 -3 45 -20 45 -19 0 -20 -7
-20 -129z m128 -3 c7 -7 12 -24 12 -38 0 -34 -17 -50 -52 -50 -37 0 -57 38
-40 75 13 27 58 35 80 13z"/>
<path d="M882 262 c-12 -2 -30 -14 -38 -28 -15 -22 -15 -26 -1 -48 9 -14 32
-28 53 -33 49 -11 57 -33 12 -33 -19 0 -39 5 -45 11 -13 13 -33 4 -33 -16 0
-17 50 -45 78 -45 30 0 72 38 72 65 0 26 -27 49 -72 59 -48 11 -33 29 17 22
36 -6 45 -4 45 7 0 27 -42 46 -88 39z"/>
<path d="M1085 261 c-64 -26 -81 -110 -32 -158 32 -33 96 -38 124 -10 25 24 5
42 -30 26 -22 -10 -31 -9 -54 7 l-28 19 67 5 c36 3 69 8 73 12 16 15 -8 70
-38 89 -34 20 -51 22 -82 10z m66 -41 c33 -18 21 -30 -31 -30 -51 0 -64 11
-32 29 22 13 39 13 63 1z"/>
<path d="M1272 258 c-15 -15 -16 -174 -2 -183 21 -13 39 17 42 68 3 46 7 54
35 72 50 31 38 63 -16 43 -14 -5 -28 -5 -35 2 -9 6 -16 6 -24 -2z"/>
<path d="M1689 255 c-34 -18 -53 -65 -45 -108 8 -42 33 -66 78 -73 67 -11 121
65 94 131 -7 16 -20 36 -28 42 -24 20 -71 24 -99 8z m79 -47 c7 -7 12 -27 12
-45 0 -25 -6 -36 -24 -44 -47 -22 -92 32 -66 80 12 24 58 29 78 9z"/>
<path d="M1887 264 c-4 -4 -7 -36 -7 -71 0 -58 3 -68 29 -94 33 -33 50 -35 91
-14 35 18 42 41 38 120 -2 45 -7 60 -18 60 -12 0 -16 -15 -18 -67 -2 -55 -7
-70 -22 -78 -14 -8 -26 -8 -40 0 -15 8 -20 23 -22 77 -3 61 -14 84 -31 67z"/>
<path d="M2162 262 c-12 -2 -30 -14 -38 -28 -15 -22 -15 -26 -1 -48 9 -14 32
-28 53 -33 49 -11 57 -33 12 -33 -19 0 -39 5 -45 11 -13 13 -33 4 -33 -16 0
-17 50 -45 78 -45 30 0 72 38 72 65 0 26 -27 49 -72 59 -48 11 -33 29 17 22
36 -6 45 -4 45 7 0 27 -42 46 -88 39z"/>
<path d="M1426 251 c-9 -14 64 -181 79 -181 14 0 88 167 79 181 -13 22 -33 5
-55 -48 l-23 -58 -25 58 c-22 53 -42 70 -55 48z"/>
</g>
</svg>
